<?xml version="1.0" encoding="UTF-8" standalone="no"?>
<svg
   xmlns:dc="http://purl.org/dc/elements/1.1/"
   xmlns:cc="http://creativecommons.org/ns#"
   xmlns:rdf="http://www.w3.org/1999/02/22-rdf-syntax-ns#"
   xmlns:svg="http://www.w3.org/2000/svg"
   xmlns="http://www.w3.org/2000/svg"
   xmlns:sodipodi="http://sodipodi.sourceforge.net/DTD/sodipodi-0.dtd"
   xmlns:inkscape="http://www.inkscape.org/namespaces/inkscape"
   width="250"
   height="250"
   viewBox="0 0 66.145832 66.145835"
   version="1.1"
   id="svg8"
   sodipodi:docname="food.svg"
   inkscape:version="1.0 (4035a4fb49, 2020-05-01)">
  <defs
     id="defs2" />
  <sodipodi:namedview
     inkscape:snap-bbox="false"
     id="base"
     pagecolor="#ffffff"
     bordercolor="#666666"
     borderopacity="1.0"
     inkscape:pageopacity="0.0"
     inkscape:pageshadow="2"
     inkscape:zoom="1.4"
     inkscape:cx="241.98956"
     inkscape:cy="93.779914"
     inkscape:document-units="mm"
     inkscape:current-layer="layer1"
     inkscape:document-rotation="0"
     showgrid="false"
     units="px"
     inkscape:window-width="1920"
     inkscape:window-height="1027"
     inkscape:window-x="1272"
     inkscape:window-y="-8"
     inkscape:window-maximized="1"
     inkscape:snap-others="false"
     inkscape:object-nodes="true"
     inkscape:snap-nodes="false" />
  <metadata
     id="metadata5">
    <rdf:RDF>
      <cc:Work
         rdf:about="">
        <dc:format>image/svg+xml</dc:format>
        <dc:type
           rdf:resource="http://purl.org/dc/dcmitype/StillImage" />
        <dc:title />
      </cc:Work>
    </rdf:RDF>
  </metadata>
  <g
     inkscape:label="Layer 1"
     inkscape:groupmode="layer"
     id="layer1">
    <path
       sodipodi:nodetypes="sscaascss"
       id="path834"
       d="m 11.235505,55.043589 c 0.0029,-1.8041 15.276466,-22.846395 19.015067,-27.823 3.519424,-4.684849 18.792905,-27.22770801 18.792905,-27.22770801 0,0 3.147054,3.99539031 3.817507,6.38181991 0.915018,3.2569432 0.949202,6.8771101 0.08813,10.1487301 -1.737874,6.603022 -7.387907,15.598017 -10.238284,17.741433 -1.846993,1.388894 -6.383918,0.969081 -6.383918,0.969081 0,0 -14.935073,24.167937 -16.720325,24.690783 -3.099869,0.907856 -8.376239,-1.651066 -8.371082,-4.881139 z"
       style="fill:#ffffff;fill-opacity:1;stroke:none;stroke-width:0.298396px;stroke-linecap:butt;stroke-linejoin:miter;stroke-opacity:1" />
    <path
       sodipodi:nodetypes="sscsccssccssccscs"
       id="path840"
       d="m 47.763585,60.382368 c 2.15097,0.468303 8.164904,-3.04201 7.104144,-4.970939 -1.180779,-2.14717 -26.67299,-35.467074 -26.67299,-35.467074 0,0 1.231458,-2.903157 -0.194626,-6.640115 C 26.567486,9.5501106 17.762264,3.2186004 17.762264,3.2186004 L 15.68146,4.376804 c 0,0 7.612781,8.785713 7.620609,10.036518 0.0039,0.610533 -0.639113,0.860395 -1.241645,0.76179 C 21.254884,15.043284 12.554491,4.6769963 12.554491,4.6769963 l -1.610247,1.2496708 c 0,0 7.561013,10.8610969 7.787615,11.3750959 0.246295,0.558664 -0.555407,1.043916 -1.162414,0.978263 C 16.590012,18.174095 8.7294128,8.1398842 8.7294128,8.1398842 L 7.4773153,9.5568393 c 0,0 3.4025357,9.8491887 7.1516437,12.3774377 3.884865,2.619802 6.582381,2.230012 6.582381,2.230012 0,0 24.703267,35.815526 26.552245,36.218079 z"
       style="fill:#ffffff;fill-opacity:1;stroke:none;stroke-width:0.268443px;stroke-linecap:butt;stroke-linejoin:miter;stroke-opacity:1" />
    <path
       style="fill:#ffffff;fill-opacity:0.74137932;stroke:none;stroke-width:0.268443px;stroke-linecap:butt;stroke-linejoin:miter;stroke-opacity:1"
       d="m 42.967904,35.924377 c 2.571662,-0.66589 8.816527,-8.436429 10.470501,-12.222154 1.699775,-3.890571 2.017402,-8.30882 2.163239,-12.551995 0.04362,-1.2694751 -0.387858,-3.7908876 -0.387858,-3.7908876 0,0 1.858876,2.6798746 2.2197,4.2311426 1.000577,4.301745 1.154008,9.090969 -0.345417,13.245228 -2.077098,5.754739 -6.590902,11.410861 -11.350206,14.424108 -0.22084,0.132956 -3.278101,-2.838971 -2.769959,-3.335442 z"
       id="path836-3"
       sodipodi:nodetypes="csacaacc" />
    <path
       id="path836"
       style="fill:#ffffff;fill-opacity:0.74137932;stroke:none;stroke-width:1.01459px;stroke-linecap:butt;stroke-linejoin:miter;stroke-opacity:1"
       d="m 130.23828,170.37109 -8.5664,0.17383 c 0,0 -33.57071,59.46215 -45.123052,64.22461 -7.816717,3.22245 -17.667698,1.44543 -25.263672,-2.26758 -5.010482,-2.44918 -11.416015,-12.23047 -11.416015,-12.23047 0,0 4.594368,17.44204 11.34375,22.38282 7.111521,5.20587 16.51736,5.95888 26.09375,4.26758 8.483331,-1.49827 29.609599,-28.12466 36.957029,-39.95313 2.89885,-4.66679 13.18862,-20.50307 13.18862,-20.50307 0,0 37.54772,58.28516 42.99302,61.2433 7.46943,4.05775 26.65641,-1.7983 34.18555,-5.7832 9.05028,-4.78998 8.05664,-21.5293 8.05664,-21.5293 0,0 -5.16994,9.1953 -10.02344,11.92383 -4.48514,2.52145 -18.67812,6.17281 -26.74804,3.64063 -5.21432,-2.87402 -41.82884,-61.55392 -45.67774,-65.58985 z"
       transform="scale(0.26458333)"
       sodipodi:nodetypes="ccsscssscsscscc" />
    <path
       sodipodi:nodetypes="csccccsc"
       id="path880"
       d="m 6.5663762,12.667828 c 0,0 2.7262915,7.193311 4.7118588,9.30547 2.166053,2.30415 5.427004,4.192733 9.079334,3.796351 l 4.306207,5.857519 -2.182247,2.769539 -3.994031,-5.840936 c 0,0 -5.393317,-0.245975 -8.144706,-3.365316 C 7.572051,22.049172 5.8881806,13.749993 6.5663762,12.667828 Z"
       style="fill:#ffffff;fill-opacity:0.74137932;stroke:none;stroke-width:0.268443px;stroke-linecap:butt;stroke-linejoin:miter;stroke-opacity:1" />
  </g>
</svg>
