<?xml version="1.0" encoding="UTF-8" standalone="no"?>
<svg
   xmlns:dc="http://purl.org/dc/elements/1.1/"
   xmlns:cc="http://creativecommons.org/ns#"
   xmlns:rdf="http://www.w3.org/1999/02/22-rdf-syntax-ns#"
   xmlns:svg="http://www.w3.org/2000/svg"
   xmlns="http://www.w3.org/2000/svg"
   xmlns:sodipodi="http://sodipodi.sourceforge.net/DTD/sodipodi-0.dtd"
   xmlns:inkscape="http://www.inkscape.org/namespaces/inkscape"
   width="250"
   height="250"
   viewBox="0 0 66.145832 66.145835"
   version="1.1"
   id="svg8"
   sodipodi:docname="happiness.svg"
   inkscape:version="1.0 (4035a4fb49, 2020-05-01)">
  <defs
     id="defs2" />
  <sodipodi:namedview
     id="base"
     pagecolor="#ffffff"
     bordercolor="#666666"
     borderopacity="1.0"
     inkscape:pageopacity="0.0"
     inkscape:pageshadow="2"
     inkscape:zoom="1.4"
     inkscape:cx="207.88752"
     inkscape:cy="118.14654"
     inkscape:document-units="mm"
     inkscape:current-layer="layer1"
     inkscape:document-rotation="0"
     showgrid="false"
     units="px"
     inkscape:window-width="1920"
     inkscape:window-height="1027"
     inkscape:window-x="1272"
     inkscape:window-y="-8"
     inkscape:window-maximized="1"
     inkscape:snap-others="false"
     inkscape:object-nodes="false"
     inkscape:snap-nodes="false" />
  <metadata
     id="metadata5">
    <rdf:RDF>
      <cc:Work
         rdf:about="">
        <dc:format>image/svg+xml</dc:format>
        <dc:type
           rdf:resource="http://purl.org/dc/dcmitype/StillImage" />
        <dc:title></dc:title>
      </cc:Work>
    </rdf:RDF>
  </metadata>
  <g
     inkscape:label="Layer 1"
     inkscape:groupmode="layer"
     id="layer1">
    <path
       transform="scale(0.26458333)"
       d="M 126.32031 17.085938 C 58.64437 17.556734 26.026204 53.074481 26.554688 103.01953 C 27.311937 174.58461 99.062443 177.02467 95.101562 182.61914 C 91.437093 187.79495 51.038053 171.71214 43.863281 169.72656 C 37.036646 167.83733 41.240687 183.74474 45.982422 186.53906 C 54.227786 191.39809 94.173596 205.76839 98.974609 210.67773 C 102.7825 214.57154 102.8001 225.63527 108.10938 225.94727 C 119.749 226.63129 126.58192 226.21953 138.1543 226.33594 C 144.77104 226.40249 146.76994 215.0783 151.36328 211 C 155.55836 207.2753 197.91074 189.23772 203.31836 184.39062 C 207.30527 180.817 209.49536 162.42209 201.41602 166.28125 C 195.03479 169.32929 155.91129 186.17486 153.18945 182.41016 C 149.93982 177.91544 221.21887 166.90125 221.80859 107.75195 C 222.29805 58.659825 193.99626 16.615139 126.32031 17.085938 z M 174.32617 42.728516 A 14.59488 12.445035 0 0 1 188.92188 55.173828 A 14.59488 12.445035 0 0 1 174.32617 67.619141 A 14.59488 12.445035 0 0 1 159.73242 55.173828 A 14.59488 12.445035 0 0 1 174.32617 42.728516 z M 63.162109 50.574219 A 7.8814578 6.8218676 0 0 1 71.042969 57.396484 A 7.8814578 6.8218676 0 0 1 63.162109 64.21875 A 7.8814578 6.8218676 0 0 1 55.279297 57.396484 A 7.8814578 6.8218676 0 0 1 63.162109 50.574219 z M 148.58594 65.619141 C 151.42596 65.605708 153.93337 66.05742 155.94922 67.242188 C 165.16455 72.658267 166.88433 81.026103 162.1875 89.880859 C 157.49066 98.735616 132.11067 108.7891 115.50195 109.14844 C 98.893245 109.50779 79.381483 102.96429 73.787109 92.949219 C 68.192736 82.934147 70.462582 75.664921 78.134766 69.265625 C 87.936573 62.251109 98.591237 70.976406 112.90039 71.353516 C 124.07942 71.648142 138.44302 65.667113 148.58594 65.619141 z "
       style="fill:#ffffff;fill-opacity:1;stroke:none;stroke-width:1.1263px;stroke-linecap:butt;stroke-linejoin:miter;stroke-opacity:1"
       id="path833" />
    <path
       style="fill:#ffffff;fill-opacity:0.7418738;stroke:none;stroke-width:0.130421px;stroke-linecap:butt;stroke-linejoin:miter;stroke-opacity:1"
       d="m 29.601322,21.91085 c 2.12571,0.04318 4.855688,0.377272 6.224679,0.997428 1.368992,0.620156 1.624333,1.5782 0.926591,2.592094 -0.697743,1.013893 -4.467963,2.165098 -6.935286,2.206243 -2.467323,0.04115 -5.365926,-0.708097 -6.197004,-1.854851 -0.831077,-1.146753 -0.493852,-1.979173 0.645896,-2.711911 1.456117,-0.803181 3.209415,-1.272183 5.335124,-1.229003 z"
       id="path853-0"
       sodipodi:nodetypes="zzzzzcz" />
  </g>
</svg>
